G04*
G04 #@! TF.GenerationSoftware,Altium Limited,Altium Designer,21.6.4 (81)*
G04*
G04 Layer_Physical_Order=2*
G04 Layer_Color=16711680*
%FSLAX25Y25*%
%MOIN*%
G70*
G04*
G04 #@! TF.SameCoordinates,CDACAC81-B456-474A-B871-3F5FD81D5149*
G04*
G04*
G04 #@! TF.FilePolarity,Positive*
G04*
G01*
G75*
%ADD13C,0.01000*%
%ADD39C,0.06142*%
%ADD40R,0.06142X0.06142*%
%ADD41C,0.05394*%
%ADD42R,0.05394X0.05394*%
%ADD43C,0.05000*%
G36*
X245000Y5000D02*
X214697D01*
Y10697D01*
X207303D01*
Y8529D01*
X191633D01*
X188529Y11633D01*
Y24000D01*
X188413Y24585D01*
X188081Y25081D01*
X182081Y31081D01*
X181585Y31413D01*
X181000Y31529D01*
X129633D01*
X126529Y34633D01*
Y87841D01*
X127149Y88199D01*
X127801Y88851D01*
X128261Y89649D01*
X128500Y90539D01*
Y91461D01*
X128261Y92351D01*
X127801Y93149D01*
X127149Y93801D01*
X126351Y94261D01*
X125461Y94500D01*
X124539D01*
X123649Y94261D01*
X122851Y93801D01*
X122199Y93149D01*
X121739Y92351D01*
X121500Y91461D01*
Y90539D01*
X121739Y89649D01*
X122199Y88851D01*
X122851Y88199D01*
X123471Y87841D01*
Y34000D01*
X123587Y33415D01*
X123919Y32919D01*
X127919Y28919D01*
X128415Y28587D01*
X129000Y28471D01*
X180367D01*
X185471Y23367D01*
Y11000D01*
X185587Y10415D01*
X185919Y9919D01*
X189919Y5919D01*
X190415Y5587D01*
X190852Y5500D01*
X190803Y5000D01*
X5000D01*
Y115000D01*
X36303D01*
Y108303D01*
X43697D01*
Y115000D01*
X206386D01*
X206636Y114567D01*
X206555Y114427D01*
X206303Y113487D01*
Y112513D01*
X206555Y111573D01*
X207042Y110730D01*
X207730Y110042D01*
X208573Y109555D01*
X209513Y109303D01*
X210487D01*
X211427Y109555D01*
X212270Y110042D01*
X212958Y110730D01*
X213445Y111573D01*
X213697Y112513D01*
Y113487D01*
X213445Y114427D01*
X213364Y114567D01*
X213614Y115000D01*
X245000D01*
Y5000D01*
D02*
G37*
%LPC*%
G36*
X213697Y106697D02*
X210500D01*
Y103500D01*
X213697D01*
Y106697D01*
D02*
G37*
G36*
X209500D02*
X206303D01*
Y103500D01*
X209500D01*
Y106697D01*
D02*
G37*
G36*
X213697Y102500D02*
X210500D01*
Y99303D01*
X213697D01*
Y102500D01*
D02*
G37*
G36*
X209500D02*
X206303D01*
Y99303D01*
X209500D01*
Y102500D01*
D02*
G37*
G36*
X40487Y105697D02*
X39513D01*
X38573Y105445D01*
X37730Y104958D01*
X37042Y104270D01*
X36555Y103427D01*
X36303Y102487D01*
Y101513D01*
X36555Y100573D01*
X37042Y99730D01*
X37730Y99042D01*
X38573Y98555D01*
X39513Y98303D01*
X40487D01*
X41427Y98555D01*
X42270Y99042D01*
X42958Y99730D01*
X43445Y100573D01*
X43697Y101513D01*
Y102487D01*
X43445Y103427D01*
X42958Y104270D01*
X42270Y104958D01*
X41427Y105445D01*
X40487Y105697D01*
D02*
G37*
G36*
X179071Y104071D02*
X170929D01*
Y95929D01*
X179071D01*
Y104071D01*
D02*
G37*
G36*
X165536D02*
X164464D01*
X163429Y103793D01*
X162500Y103258D01*
X161742Y102500D01*
X161207Y101571D01*
X160929Y100536D01*
Y99464D01*
X161207Y98429D01*
X161742Y97500D01*
X162500Y96742D01*
X163429Y96207D01*
X164464Y95929D01*
X165536D01*
X166571Y96207D01*
X167500Y96742D01*
X168257Y97500D01*
X168793Y98429D01*
X169071Y99464D01*
Y100536D01*
X168793Y101571D01*
X168257Y102500D01*
X167500Y103258D01*
X166571Y103793D01*
X165536Y104071D01*
D02*
G37*
G36*
X155536D02*
X154464D01*
X153429Y103793D01*
X152500Y103258D01*
X151742Y102500D01*
X151207Y101571D01*
X150929Y100536D01*
Y99464D01*
X151207Y98429D01*
X151742Y97500D01*
X152500Y96742D01*
X153429Y96207D01*
X154464Y95929D01*
X155536D01*
X156571Y96207D01*
X157500Y96742D01*
X158257Y97500D01*
X158793Y98429D01*
X159071Y99464D01*
Y100536D01*
X158793Y101571D01*
X158257Y102500D01*
X157500Y103258D01*
X156571Y103793D01*
X155536Y104071D01*
D02*
G37*
G36*
X145536D02*
X144464D01*
X143429Y103793D01*
X142500Y103258D01*
X141743Y102500D01*
X141207Y101571D01*
X140929Y100536D01*
Y99464D01*
X141207Y98429D01*
X141743Y97500D01*
X142500Y96742D01*
X143429Y96207D01*
X144464Y95929D01*
X145536D01*
X146571Y96207D01*
X147500Y96742D01*
X148258Y97500D01*
X148793Y98429D01*
X149071Y99464D01*
Y100536D01*
X148793Y101571D01*
X148258Y102500D01*
X147500Y103258D01*
X146571Y103793D01*
X145536Y104071D01*
D02*
G37*
G36*
X135536D02*
X134464D01*
X133429Y103793D01*
X132500Y103258D01*
X131743Y102500D01*
X131207Y101571D01*
X130929Y100536D01*
Y99464D01*
X131207Y98429D01*
X131743Y97500D01*
X132500Y96742D01*
X133429Y96207D01*
X134464Y95929D01*
X135536D01*
X136571Y96207D01*
X137500Y96742D01*
X138258Y97500D01*
X138793Y98429D01*
X139071Y99464D01*
Y100536D01*
X138793Y101571D01*
X138258Y102500D01*
X137500Y103258D01*
X136571Y103793D01*
X135536Y104071D01*
D02*
G37*
G36*
X125536D02*
X124464D01*
X123429Y103793D01*
X122500Y103258D01*
X121742Y102500D01*
X121207Y101571D01*
X120929Y100536D01*
Y99464D01*
X121207Y98429D01*
X121742Y97500D01*
X122500Y96742D01*
X123429Y96207D01*
X124464Y95929D01*
X125536D01*
X126571Y96207D01*
X127500Y96742D01*
X128258Y97500D01*
X128793Y98429D01*
X129071Y99464D01*
Y100536D01*
X128793Y101571D01*
X128258Y102500D01*
X127500Y103258D01*
X126571Y103793D01*
X125536Y104071D01*
D02*
G37*
G36*
X115536D02*
X114464D01*
X113429Y103793D01*
X112500Y103258D01*
X111742Y102500D01*
X111207Y101571D01*
X110929Y100536D01*
Y99464D01*
X111207Y98429D01*
X111742Y97500D01*
X112500Y96742D01*
X113429Y96207D01*
X114464Y95929D01*
X115536D01*
X116571Y96207D01*
X117500Y96742D01*
X118257Y97500D01*
X118793Y98429D01*
X119071Y99464D01*
Y100536D01*
X118793Y101571D01*
X118257Y102500D01*
X117500Y103258D01*
X116571Y103793D01*
X115536Y104071D01*
D02*
G37*
G36*
X105536D02*
X104464D01*
X103429Y103793D01*
X102500Y103258D01*
X101742Y102500D01*
X101207Y101571D01*
X100929Y100536D01*
Y99464D01*
X101207Y98429D01*
X101742Y97500D01*
X102500Y96742D01*
X103429Y96207D01*
X104464Y95929D01*
X105536D01*
X106571Y96207D01*
X107500Y96742D01*
X108257Y97500D01*
X108793Y98429D01*
X109071Y99464D01*
Y100536D01*
X108793Y101571D01*
X108257Y102500D01*
X107500Y103258D01*
X106571Y103793D01*
X105536Y104071D01*
D02*
G37*
G36*
X95536D02*
X94464D01*
X93429Y103793D01*
X92500Y103258D01*
X91742Y102500D01*
X91207Y101571D01*
X90929Y100536D01*
Y99464D01*
X91207Y98429D01*
X91742Y97500D01*
X92500Y96742D01*
X93429Y96207D01*
X94464Y95929D01*
X95536D01*
X96571Y96207D01*
X97500Y96742D01*
X98257Y97500D01*
X98793Y98429D01*
X99071Y99464D01*
Y100536D01*
X98793Y101571D01*
X98257Y102500D01*
X97500Y103258D01*
X96571Y103793D01*
X95536Y104071D01*
D02*
G37*
G36*
X85536D02*
X84464D01*
X83429Y103793D01*
X82500Y103258D01*
X81743Y102500D01*
X81207Y101571D01*
X80929Y100536D01*
Y99464D01*
X81207Y98429D01*
X81743Y97500D01*
X82500Y96742D01*
X83429Y96207D01*
X84464Y95929D01*
X85536D01*
X86571Y96207D01*
X87500Y96742D01*
X88257Y97500D01*
X88793Y98429D01*
X89071Y99464D01*
Y100536D01*
X88793Y101571D01*
X88257Y102500D01*
X87500Y103258D01*
X86571Y103793D01*
X85536Y104071D01*
D02*
G37*
G36*
X75536D02*
X74464D01*
X73429Y103793D01*
X72500Y103258D01*
X71742Y102500D01*
X71207Y101571D01*
X70929Y100536D01*
Y99464D01*
X71207Y98429D01*
X71742Y97500D01*
X72500Y96742D01*
X73429Y96207D01*
X74464Y95929D01*
X75536D01*
X76571Y96207D01*
X77500Y96742D01*
X78258Y97500D01*
X78793Y98429D01*
X79071Y99464D01*
Y100536D01*
X78793Y101571D01*
X78258Y102500D01*
X77500Y103258D01*
X76571Y103793D01*
X75536Y104071D01*
D02*
G37*
G36*
X65536D02*
X64464D01*
X63429Y103793D01*
X62500Y103258D01*
X61743Y102500D01*
X61207Y101571D01*
X60929Y100536D01*
Y99464D01*
X61207Y98429D01*
X61743Y97500D01*
X62500Y96742D01*
X63429Y96207D01*
X64464Y95929D01*
X65536D01*
X66571Y96207D01*
X67500Y96742D01*
X68257Y97500D01*
X68793Y98429D01*
X69071Y99464D01*
Y100536D01*
X68793Y101571D01*
X68257Y102500D01*
X67500Y103258D01*
X66571Y103793D01*
X65536Y104071D01*
D02*
G37*
G36*
X40500Y95693D02*
Y92500D01*
X43693D01*
X43445Y93427D01*
X42958Y94270D01*
X42270Y94958D01*
X41427Y95445D01*
X40500Y95693D01*
D02*
G37*
G36*
X39500D02*
X38573Y95445D01*
X37730Y94958D01*
X37042Y94270D01*
X36555Y93427D01*
X36307Y92500D01*
X39500D01*
Y95693D01*
D02*
G37*
G36*
X43693Y91500D02*
X40500D01*
Y88307D01*
X41427Y88555D01*
X42270Y89042D01*
X42958Y89730D01*
X43445Y90573D01*
X43693Y91500D01*
D02*
G37*
G36*
X39500D02*
X36307D01*
X36555Y90573D01*
X37042Y89730D01*
X37730Y89042D01*
X38573Y88555D01*
X39500Y88307D01*
Y91500D01*
D02*
G37*
G36*
X208500Y90490D02*
Y87500D01*
X211490D01*
X211262Y88351D01*
X210801Y89149D01*
X210149Y89801D01*
X209351Y90262D01*
X208500Y90490D01*
D02*
G37*
G36*
X207500D02*
X206649Y90262D01*
X205851Y89801D01*
X205199Y89149D01*
X204738Y88351D01*
X204510Y87500D01*
X207500D01*
Y90490D01*
D02*
G37*
G36*
X211490Y86500D02*
X208500D01*
Y83511D01*
X209351Y83738D01*
X210149Y84199D01*
X210801Y84851D01*
X211262Y85649D01*
X211490Y86500D01*
D02*
G37*
G36*
X207500D02*
X204510D01*
X204738Y85649D01*
X205199Y84851D01*
X205851Y84199D01*
X206649Y83738D01*
X207500Y83511D01*
Y86500D01*
D02*
G37*
G36*
X114461Y83500D02*
X113539D01*
X112649Y83262D01*
X111851Y82801D01*
X111199Y82149D01*
X110842Y81529D01*
X68000D01*
X67415Y81413D01*
X66919Y81081D01*
X63919Y78081D01*
X63587Y77585D01*
X63471Y77000D01*
Y37159D01*
X62851Y36801D01*
X62199Y36149D01*
X61739Y35351D01*
X61500Y34461D01*
Y33539D01*
X61739Y32649D01*
X62199Y31851D01*
X62851Y31199D01*
X63649Y30738D01*
X64539Y30500D01*
X65461D01*
X66351Y30738D01*
X67149Y31199D01*
X67801Y31851D01*
X68261Y32649D01*
X68500Y33539D01*
Y34461D01*
X68261Y35351D01*
X67801Y36149D01*
X67149Y36801D01*
X66529Y37159D01*
Y43011D01*
X67029Y43145D01*
X67199Y42851D01*
X67851Y42199D01*
X68649Y41739D01*
X69500Y41510D01*
Y45000D01*
Y48489D01*
X68649Y48261D01*
X67851Y47801D01*
X67199Y47149D01*
X67029Y46855D01*
X66529Y46989D01*
Y76367D01*
X68634Y78471D01*
X110842D01*
X111199Y77851D01*
X111851Y77199D01*
X112649Y76739D01*
X113539Y76500D01*
X114461D01*
X115351Y76739D01*
X116149Y77199D01*
X116801Y77851D01*
X117262Y78649D01*
X117500Y79539D01*
Y80461D01*
X117262Y81351D01*
X116801Y82149D01*
X116149Y82801D01*
X115351Y83262D01*
X114461Y83500D01*
D02*
G37*
G36*
X149500Y76490D02*
Y73500D01*
X152489D01*
X152261Y74351D01*
X151801Y75149D01*
X151149Y75801D01*
X150351Y76262D01*
X149500Y76490D01*
D02*
G37*
G36*
X148500D02*
X147649Y76262D01*
X146851Y75801D01*
X146199Y75149D01*
X145738Y74351D01*
X145510Y73500D01*
X148500D01*
Y76490D01*
D02*
G37*
G36*
X152489Y72500D02*
X149500D01*
Y69511D01*
X150351Y69739D01*
X151149Y70199D01*
X151801Y70851D01*
X152261Y71649D01*
X152489Y72500D01*
D02*
G37*
G36*
X148500D02*
X145510D01*
X145738Y71649D01*
X146199Y70851D01*
X146851Y70199D01*
X147649Y69739D01*
X148500Y69511D01*
Y72500D01*
D02*
G37*
G36*
X208500Y61489D02*
Y58500D01*
X211490D01*
X211262Y59351D01*
X210801Y60149D01*
X210149Y60801D01*
X209351Y61261D01*
X208500Y61489D01*
D02*
G37*
G36*
X207500D02*
X206649Y61261D01*
X205851Y60801D01*
X205199Y60149D01*
X204738Y59351D01*
X204510Y58500D01*
X207500D01*
Y61489D01*
D02*
G37*
G36*
X211490Y57500D02*
X208500D01*
Y54510D01*
X209351Y54738D01*
X210149Y55199D01*
X210801Y55851D01*
X211262Y56649D01*
X211490Y57500D01*
D02*
G37*
G36*
X207500D02*
X204510D01*
X204738Y56649D01*
X205199Y55851D01*
X205851Y55199D01*
X206649Y54738D01*
X207500Y54510D01*
Y57500D01*
D02*
G37*
G36*
X173461Y55500D02*
X172539D01*
X171649Y55261D01*
X170851Y54801D01*
X170199Y54149D01*
X169842Y53529D01*
X144082D01*
X143497Y53413D01*
X143001Y53081D01*
X141877Y51958D01*
X141351Y52262D01*
X140461Y52500D01*
X139539D01*
X138649Y52262D01*
X137851Y51801D01*
X137199Y51149D01*
X136739Y50351D01*
X136500Y49461D01*
Y48539D01*
X136739Y47649D01*
X137199Y46851D01*
X137851Y46199D01*
X138649Y45739D01*
X139539Y45500D01*
X140461D01*
X141351Y45739D01*
X142149Y46199D01*
X142801Y46851D01*
X143262Y47649D01*
X143500Y48539D01*
Y49255D01*
X144716Y50471D01*
X169842D01*
X170199Y49851D01*
X170851Y49199D01*
X171649Y48739D01*
X172539Y48500D01*
X173461D01*
X174351Y48739D01*
X175149Y49199D01*
X175801Y49851D01*
X176261Y50649D01*
X176500Y51539D01*
Y52461D01*
X176261Y53351D01*
X175801Y54149D01*
X175149Y54801D01*
X174351Y55261D01*
X173461Y55500D01*
D02*
G37*
G36*
X70500Y48489D02*
Y45500D01*
X73489D01*
X73261Y46351D01*
X72801Y47149D01*
X72149Y47801D01*
X71351Y48261D01*
X70500Y48489D01*
D02*
G37*
G36*
X149500Y45489D02*
Y42500D01*
X152489D01*
X152261Y43351D01*
X151801Y44149D01*
X151149Y44801D01*
X150351Y45261D01*
X149500Y45489D01*
D02*
G37*
G36*
X148500D02*
X147649Y45261D01*
X146851Y44801D01*
X146199Y44149D01*
X145738Y43351D01*
X145510Y42500D01*
X148500D01*
Y45489D01*
D02*
G37*
G36*
X73489Y44500D02*
X70500D01*
Y41510D01*
X71351Y41739D01*
X72149Y42199D01*
X72801Y42851D01*
X73261Y43649D01*
X73489Y44500D01*
D02*
G37*
G36*
X152489Y41500D02*
X149500D01*
Y38511D01*
X150351Y38739D01*
X151149Y39199D01*
X151801Y39851D01*
X152261Y40649D01*
X152489Y41500D01*
D02*
G37*
G36*
X148500D02*
X145510D01*
X145738Y40649D01*
X146199Y39851D01*
X146851Y39199D01*
X147649Y38739D01*
X148500Y38511D01*
Y41500D01*
D02*
G37*
G36*
X219461Y82500D02*
X218539D01*
X217649Y82262D01*
X216851Y81801D01*
X216199Y81149D01*
X215739Y80351D01*
X215500Y79461D01*
Y78539D01*
X215739Y77649D01*
X216199Y76851D01*
X216851Y76199D01*
X217471Y75841D01*
Y42158D01*
X216851Y41801D01*
X216199Y41149D01*
X215739Y40351D01*
X215500Y39461D01*
Y38539D01*
X215739Y37649D01*
X216199Y36851D01*
X216851Y36199D01*
X217649Y35739D01*
X218539Y35500D01*
X219461D01*
X220351Y35739D01*
X221149Y36199D01*
X221801Y36851D01*
X222262Y37649D01*
X222500Y38539D01*
Y39461D01*
X222262Y40351D01*
X221801Y41149D01*
X221149Y41801D01*
X220529Y42158D01*
Y75841D01*
X221149Y76199D01*
X221801Y76851D01*
X222262Y77649D01*
X222500Y78539D01*
Y79461D01*
X222262Y80351D01*
X221801Y81149D01*
X221149Y81801D01*
X220351Y82262D01*
X219461Y82500D01*
D02*
G37*
G36*
X117500Y32489D02*
Y29500D01*
X120490D01*
X120262Y30351D01*
X119801Y31149D01*
X119149Y31801D01*
X118351Y32261D01*
X117500Y32489D01*
D02*
G37*
G36*
X116500D02*
X115649Y32261D01*
X114851Y31801D01*
X114199Y31149D01*
X113739Y30351D01*
X113511Y29500D01*
X116500D01*
Y32489D01*
D02*
G37*
G36*
X120490Y28500D02*
X117500D01*
Y25510D01*
X118351Y25738D01*
X119149Y26199D01*
X119801Y26851D01*
X120262Y27649D01*
X120490Y28500D01*
D02*
G37*
G36*
X116500D02*
X113511D01*
X113739Y27649D01*
X114199Y26851D01*
X114851Y26199D01*
X115649Y25738D01*
X116500Y25510D01*
Y28500D01*
D02*
G37*
G36*
X55536Y24071D02*
X55500D01*
Y20500D01*
X59071D01*
Y20536D01*
X58793Y21571D01*
X58258Y22500D01*
X57500Y23257D01*
X56571Y23793D01*
X55536Y24071D01*
D02*
G37*
G36*
X54500D02*
X54464D01*
X53429Y23793D01*
X52500Y23257D01*
X51743Y22500D01*
X51207Y21571D01*
X50929Y20536D01*
Y20500D01*
X54500D01*
Y24071D01*
D02*
G37*
G36*
X179071D02*
X170929D01*
Y15929D01*
X179071D01*
Y24071D01*
D02*
G37*
G36*
X165536D02*
X164464D01*
X163429Y23793D01*
X162500Y23257D01*
X161742Y22500D01*
X161207Y21571D01*
X160929Y20536D01*
Y19464D01*
X161207Y18429D01*
X161742Y17500D01*
X162500Y16743D01*
X163429Y16207D01*
X164464Y15929D01*
X165536D01*
X166571Y16207D01*
X167500Y16743D01*
X168257Y17500D01*
X168793Y18429D01*
X169071Y19464D01*
Y20536D01*
X168793Y21571D01*
X168257Y22500D01*
X167500Y23257D01*
X166571Y23793D01*
X165536Y24071D01*
D02*
G37*
G36*
X155536D02*
X154464D01*
X153429Y23793D01*
X152500Y23257D01*
X151742Y22500D01*
X151207Y21571D01*
X150929Y20536D01*
Y19464D01*
X151207Y18429D01*
X151742Y17500D01*
X152500Y16743D01*
X153429Y16207D01*
X154464Y15929D01*
X155536D01*
X156571Y16207D01*
X157500Y16743D01*
X158257Y17500D01*
X158793Y18429D01*
X159071Y19464D01*
Y20536D01*
X158793Y21571D01*
X158257Y22500D01*
X157500Y23257D01*
X156571Y23793D01*
X155536Y24071D01*
D02*
G37*
G36*
X145536D02*
X144464D01*
X143429Y23793D01*
X142500Y23257D01*
X141743Y22500D01*
X141207Y21571D01*
X140929Y20536D01*
Y19464D01*
X141207Y18429D01*
X141743Y17500D01*
X142500Y16743D01*
X143429Y16207D01*
X144464Y15929D01*
X145536D01*
X146571Y16207D01*
X147500Y16743D01*
X148258Y17500D01*
X148793Y18429D01*
X149071Y19464D01*
Y20536D01*
X148793Y21571D01*
X148258Y22500D01*
X147500Y23257D01*
X146571Y23793D01*
X145536Y24071D01*
D02*
G37*
G36*
X135536D02*
X134464D01*
X133429Y23793D01*
X132500Y23257D01*
X131743Y22500D01*
X131207Y21571D01*
X130929Y20536D01*
Y19464D01*
X131207Y18429D01*
X131743Y17500D01*
X132500Y16743D01*
X133429Y16207D01*
X134464Y15929D01*
X135536D01*
X136571Y16207D01*
X137500Y16743D01*
X138258Y17500D01*
X138793Y18429D01*
X139071Y19464D01*
Y20536D01*
X138793Y21571D01*
X138258Y22500D01*
X137500Y23257D01*
X136571Y23793D01*
X135536Y24071D01*
D02*
G37*
G36*
X125536D02*
X124464D01*
X123429Y23793D01*
X122500Y23257D01*
X121742Y22500D01*
X121207Y21571D01*
X120929Y20536D01*
Y19464D01*
X121207Y18429D01*
X121742Y17500D01*
X122500Y16743D01*
X123429Y16207D01*
X124464Y15929D01*
X125536D01*
X126571Y16207D01*
X127500Y16743D01*
X128258Y17500D01*
X128793Y18429D01*
X129071Y19464D01*
Y20536D01*
X128793Y21571D01*
X128258Y22500D01*
X127500Y23257D01*
X126571Y23793D01*
X125536Y24071D01*
D02*
G37*
G36*
X115536D02*
X114464D01*
X113429Y23793D01*
X112500Y23257D01*
X111742Y22500D01*
X111207Y21571D01*
X110929Y20536D01*
Y19464D01*
X111207Y18429D01*
X111742Y17500D01*
X112500Y16743D01*
X113429Y16207D01*
X114464Y15929D01*
X115536D01*
X116571Y16207D01*
X117500Y16743D01*
X118257Y17500D01*
X118793Y18429D01*
X119071Y19464D01*
Y20536D01*
X118793Y21571D01*
X118257Y22500D01*
X117500Y23257D01*
X116571Y23793D01*
X115536Y24071D01*
D02*
G37*
G36*
X105536D02*
X104464D01*
X103429Y23793D01*
X102500Y23257D01*
X101742Y22500D01*
X101207Y21571D01*
X100929Y20536D01*
Y19464D01*
X101207Y18429D01*
X101742Y17500D01*
X102500Y16743D01*
X103429Y16207D01*
X104464Y15929D01*
X105536D01*
X106571Y16207D01*
X107500Y16743D01*
X108257Y17500D01*
X108793Y18429D01*
X109071Y19464D01*
Y20536D01*
X108793Y21571D01*
X108257Y22500D01*
X107500Y23257D01*
X106571Y23793D01*
X105536Y24071D01*
D02*
G37*
G36*
X95536D02*
X94464D01*
X93429Y23793D01*
X92500Y23257D01*
X91742Y22500D01*
X91207Y21571D01*
X90929Y20536D01*
Y19464D01*
X91207Y18429D01*
X91742Y17500D01*
X92500Y16743D01*
X93429Y16207D01*
X94464Y15929D01*
X95536D01*
X96571Y16207D01*
X97500Y16743D01*
X98257Y17500D01*
X98793Y18429D01*
X99071Y19464D01*
Y20536D01*
X98793Y21571D01*
X98257Y22500D01*
X97500Y23257D01*
X96571Y23793D01*
X95536Y24071D01*
D02*
G37*
G36*
X85536D02*
X84464D01*
X83429Y23793D01*
X82500Y23257D01*
X81743Y22500D01*
X81207Y21571D01*
X80929Y20536D01*
Y19464D01*
X81207Y18429D01*
X81743Y17500D01*
X82500Y16743D01*
X83429Y16207D01*
X84464Y15929D01*
X85536D01*
X86571Y16207D01*
X87500Y16743D01*
X88257Y17500D01*
X88793Y18429D01*
X89071Y19464D01*
Y20536D01*
X88793Y21571D01*
X88257Y22500D01*
X87500Y23257D01*
X86571Y23793D01*
X85536Y24071D01*
D02*
G37*
G36*
X75536D02*
X74464D01*
X73429Y23793D01*
X72500Y23257D01*
X71742Y22500D01*
X71207Y21571D01*
X70929Y20536D01*
Y19464D01*
X71207Y18429D01*
X71742Y17500D01*
X72500Y16743D01*
X73429Y16207D01*
X74464Y15929D01*
X75536D01*
X76571Y16207D01*
X77500Y16743D01*
X78258Y17500D01*
X78793Y18429D01*
X79071Y19464D01*
Y20536D01*
X78793Y21571D01*
X78258Y22500D01*
X77500Y23257D01*
X76571Y23793D01*
X75536Y24071D01*
D02*
G37*
G36*
X65536D02*
X64464D01*
X63429Y23793D01*
X62500Y23257D01*
X61743Y22500D01*
X61207Y21571D01*
X60929Y20536D01*
Y19464D01*
X61207Y18429D01*
X61743Y17500D01*
X62500Y16743D01*
X63429Y16207D01*
X64464Y15929D01*
X65536D01*
X66571Y16207D01*
X67500Y16743D01*
X68257Y17500D01*
X68793Y18429D01*
X69071Y19464D01*
Y20536D01*
X68793Y21571D01*
X68257Y22500D01*
X67500Y23257D01*
X66571Y23793D01*
X65536Y24071D01*
D02*
G37*
G36*
X59071Y19500D02*
X55500D01*
Y15929D01*
X55536D01*
X56571Y16207D01*
X57500Y16743D01*
X58258Y17500D01*
X58793Y18429D01*
X59071Y19464D01*
Y19500D01*
D02*
G37*
G36*
X54500D02*
X50929D01*
Y19464D01*
X51207Y18429D01*
X51743Y17500D01*
X52500Y16743D01*
X53429Y16207D01*
X54464Y15929D01*
X54500D01*
Y19500D01*
D02*
G37*
G36*
X45536Y24071D02*
X44464D01*
X43429Y23793D01*
X42500Y23257D01*
X41743Y22500D01*
X41207Y21571D01*
X40929Y20536D01*
Y19464D01*
X41207Y18429D01*
X41743Y17500D01*
X42500Y16743D01*
X43429Y16207D01*
X44464Y15929D01*
X45536D01*
X46571Y16207D01*
X47500Y16743D01*
X48257Y17500D01*
X48793Y18429D01*
X49071Y19464D01*
Y20536D01*
X48793Y21571D01*
X48257Y22500D01*
X47500Y23257D01*
X46571Y23793D01*
X45536Y24071D01*
D02*
G37*
G36*
X35536D02*
X34464D01*
X33429Y23793D01*
X32500Y23257D01*
X31743Y22500D01*
X31207Y21571D01*
X30929Y20536D01*
Y19464D01*
X31207Y18429D01*
X31743Y17500D01*
X32500Y16743D01*
X33429Y16207D01*
X34464Y15929D01*
X35536D01*
X36571Y16207D01*
X37500Y16743D01*
X38258Y17500D01*
X38793Y18429D01*
X39071Y19464D01*
Y20536D01*
X38793Y21571D01*
X38258Y22500D01*
X37500Y23257D01*
X36571Y23793D01*
X35536Y24071D01*
D02*
G37*
G36*
X25536D02*
X24464D01*
X23429Y23793D01*
X22500Y23257D01*
X21743Y22500D01*
X21207Y21571D01*
X20929Y20536D01*
Y19464D01*
X21207Y18429D01*
X21743Y17500D01*
X22500Y16743D01*
X23429Y16207D01*
X24464Y15929D01*
X25536D01*
X26571Y16207D01*
X27500Y16743D01*
X28258Y17500D01*
X28793Y18429D01*
X29071Y19464D01*
Y20536D01*
X28793Y21571D01*
X28258Y22500D01*
X27500Y23257D01*
X26571Y23793D01*
X25536Y24071D01*
D02*
G37*
G36*
X211487Y20697D02*
X210513D01*
X209573Y20445D01*
X208730Y19958D01*
X208042Y19270D01*
X207555Y18427D01*
X207303Y17487D01*
Y16513D01*
X207555Y15573D01*
X208042Y14730D01*
X208730Y14042D01*
X209573Y13555D01*
X210513Y13303D01*
X211487D01*
X212427Y13555D01*
X213270Y14042D01*
X213958Y14730D01*
X214445Y15573D01*
X214697Y16513D01*
Y17487D01*
X214445Y18427D01*
X213958Y19270D01*
X213270Y19958D01*
X212427Y20445D01*
X211487Y20697D01*
D02*
G37*
%LPD*%
D13*
X144082Y52000D02*
X173000D01*
X141082Y49000D02*
X144082Y52000D01*
X140000Y49000D02*
X141082D01*
X219000Y39000D02*
Y79000D01*
X191000Y7000D02*
X211000D01*
X187000Y11000D02*
X191000Y7000D01*
X187000Y11000D02*
Y24000D01*
X181000Y30000D02*
X187000Y24000D01*
X129000Y30000D02*
X181000D01*
X125000Y34000D02*
X129000Y30000D01*
X65000Y34000D02*
Y77000D01*
X68000Y80000D02*
X114000D01*
X65000Y77000D02*
X68000Y80000D01*
X125000Y34000D02*
Y91000D01*
D39*
X65000Y100000D02*
D03*
X75000D02*
D03*
X125000D02*
D03*
X115000D02*
D03*
X105000D02*
D03*
X95000D02*
D03*
X85000D02*
D03*
X165000D02*
D03*
X155000D02*
D03*
X145000D02*
D03*
X135000D02*
D03*
X25000Y20000D02*
D03*
X35000D02*
D03*
X45000D02*
D03*
X55000D02*
D03*
X65000D02*
D03*
X75000D02*
D03*
X85000D02*
D03*
X95000D02*
D03*
X105000D02*
D03*
X115000D02*
D03*
X125000D02*
D03*
X135000D02*
D03*
X145000D02*
D03*
X155000D02*
D03*
X165000D02*
D03*
D40*
X175000Y100000D02*
D03*
Y20000D02*
D03*
D41*
X210000Y113000D02*
D03*
X40000Y92000D02*
D03*
Y102000D02*
D03*
X211000Y17000D02*
D03*
D42*
X210000Y103000D02*
D03*
X40000Y112000D02*
D03*
X211000Y7000D02*
D03*
D43*
X70000Y45000D02*
D03*
X208000Y87000D02*
D03*
X149000Y73000D02*
D03*
Y42000D02*
D03*
X173000Y52000D02*
D03*
X208000Y58000D02*
D03*
X117000Y29000D02*
D03*
X125000Y91000D02*
D03*
X114000Y80000D02*
D03*
X65000Y34000D02*
D03*
X140000Y49000D02*
D03*
X219000Y39000D02*
D03*
Y79000D02*
D03*
M02*
