M48
;Layer_Color=9474304
;FILE_FORMAT=2:5
INCH,TZ
;TYPE=PLATED
T1F00S00C0.02800
T2F00S00C0.04016
T3F00S00C0.04094
%
T01
X117000Y29000
X140000Y49000
X149000Y42000
Y73000
X125000Y91000
X114000Y80000
X70000Y45000
X65000Y34000
X173000Y52000
X208000Y58000
Y87000
X219000Y79000
Y39000
T02
X211000Y7000
Y17000
X40000Y92000
Y102000
Y112000
X210000Y113000
Y103000
T03
X155000Y20000
X165000
X175000
X145000
X135000
X125000
X115000
X105000
X95000
X85000
X75000
X65000
X55000
X45000
X35000
X25000
X65000Y100000
X75000
X85000
X95000
X105000
X115000
X125000
X135000
X145000
X155000
X165000
X175000
M30
