G04*
G04 #@! TF.GenerationSoftware,Altium Limited,Altium Designer,21.6.4 (81)*
G04*
G04 Layer_Physical_Order=1*
G04 Layer_Color=255*
%FSLAX25Y25*%
%MOIN*%
G70*
G04*
G04 #@! TF.SameCoordinates,CDACAC81-B456-474A-B871-3F5FD81D5149*
G04*
G04*
G04 #@! TF.FilePolarity,Positive*
G04*
G01*
G75*
%ADD11C,0.00600*%
%ADD13C,0.01000*%
%ADD15R,0.05800X0.01400*%
%ADD16R,0.13465X0.16394*%
%ADD17R,0.05197X0.07087*%
%ADD18R,0.05591X0.03937*%
%ADD19R,0.03937X0.05591*%
%ADD20R,0.04134X0.06772*%
G04:AMPARAMS|DCode=21|XSize=71.65mil|YSize=45.28mil|CornerRadius=12.22mil|HoleSize=0mil|Usage=FLASHONLY|Rotation=270.000|XOffset=0mil|YOffset=0mil|HoleType=Round|Shape=RoundedRectangle|*
%AMROUNDEDRECTD21*
21,1,0.07165,0.02083,0,0,270.0*
21,1,0.04720,0.04528,0,0,270.0*
1,1,0.02445,-0.01041,-0.02360*
1,1,0.02445,-0.01041,0.02360*
1,1,0.02445,0.01041,0.02360*
1,1,0.02445,0.01041,-0.02360*
%
%ADD21ROUNDEDRECTD21*%
G04:AMPARAMS|DCode=22|XSize=71.65mil|YSize=45.28mil|CornerRadius=12.22mil|HoleSize=0mil|Usage=FLASHONLY|Rotation=0.000|XOffset=0mil|YOffset=0mil|HoleType=Round|Shape=RoundedRectangle|*
%AMROUNDEDRECTD22*
21,1,0.07165,0.02083,0,0,0.0*
21,1,0.04720,0.04528,0,0,0.0*
1,1,0.02445,0.02360,-0.01041*
1,1,0.02445,-0.02360,-0.01041*
1,1,0.02445,-0.02360,0.01041*
1,1,0.02445,0.02360,0.01041*
%
%ADD22ROUNDEDRECTD22*%
%ADD36C,0.04000*%
%ADD37C,0.01200*%
%ADD38C,0.03000*%
%ADD39C,0.06142*%
%ADD40R,0.06142X0.06142*%
%ADD41C,0.05394*%
%ADD42R,0.05394X0.05394*%
%ADD43C,0.05000*%
D11*
X283599Y32408D02*
Y34408D01*
Y33408D01*
X277601D01*
X278601Y32408D01*
X283599Y37407D02*
Y39406D01*
Y38407D01*
X277601D01*
X278601Y37407D01*
X282599Y42405D02*
X283599Y43405D01*
Y45404D01*
X282599Y46404D01*
X278601D01*
X277601Y45404D01*
Y43405D01*
X278601Y42405D01*
X279600D01*
X280600Y43405D01*
Y46404D01*
X282599Y48403D02*
X283599Y49403D01*
Y51402D01*
X282599Y52402D01*
X278601D01*
X277601Y51402D01*
Y49403D01*
X278601Y48403D01*
X279600D01*
X280600Y49403D01*
Y52402D01*
X283599Y54401D02*
X282599D01*
Y55401D01*
X283599D01*
Y54401D01*
X277601Y59400D02*
Y63398D01*
X278601D01*
X282599Y59400D01*
X283599D01*
X277601Y69396D02*
X278601Y67397D01*
X280600Y65398D01*
X282599D01*
X283599Y66397D01*
Y68397D01*
X282599Y69396D01*
X281600D01*
X280600Y68397D01*
Y65398D01*
X283599Y71396D02*
X279600D01*
Y72395D01*
X280600Y73395D01*
X283599D01*
X280600D01*
X279600Y74395D01*
X280600Y75394D01*
X283599D01*
Y77394D02*
Y79393D01*
Y78394D01*
X279600D01*
Y77394D01*
X283599Y82392D02*
Y84392D01*
Y83392D01*
X277601D01*
Y82392D01*
X100644Y141401D02*
X96645D01*
X100644Y145400D01*
Y146399D01*
X99644Y147399D01*
X97645D01*
X96645Y146399D01*
X106642Y147399D02*
X102643D01*
Y144400D01*
X104642Y145400D01*
X105642D01*
X106642Y144400D01*
Y142401D01*
X105642Y141401D01*
X103643D01*
X102643Y142401D01*
X108641Y146399D02*
X109641Y147399D01*
X111640D01*
X112640Y146399D01*
Y142401D01*
X111640Y141401D01*
X109641D01*
X108641Y142401D01*
Y146399D01*
X117638Y141401D02*
Y147399D01*
X114639Y144400D01*
X118638D01*
X120637Y141401D02*
Y142401D01*
X121637D01*
Y141401D01*
X120637D01*
X125636Y147399D02*
X129634D01*
Y146399D01*
X125636Y142401D01*
Y141401D01*
X135632D02*
X131634D01*
X135632Y145400D01*
Y146399D01*
X134633Y147399D01*
X132633D01*
X131634Y146399D01*
X137632Y141401D02*
Y145400D01*
X138631D01*
X139631Y144400D01*
Y141401D01*
Y144400D01*
X140631Y145400D01*
X141630Y144400D01*
Y141401D01*
X143630D02*
X145629D01*
X144629D01*
Y145400D01*
X143630D01*
X148628Y141401D02*
X150628D01*
X149628D01*
Y147399D01*
X148628D01*
D13*
X251571Y119988D02*
X281000D01*
X252571Y12D02*
X281000D01*
X280000Y85992D02*
Y119988D01*
Y12D02*
Y30808D01*
X278000Y113988D02*
X280000Y119988D01*
X282000Y113988D01*
X280000Y12D02*
X282000Y6012D01*
X278000D02*
X280000Y12D01*
X250472Y121087D02*
Y146000D01*
X0Y121000D02*
Y146000D01*
X152227Y145000D02*
X250472D01*
X0D02*
X95045D01*
X244472Y147000D02*
X250472Y145000D01*
X244472Y143000D02*
X250472Y145000D01*
X0D02*
X6000Y143000D01*
X0Y145000D02*
X6000Y147000D01*
X70053Y52346D02*
X70107Y52400D01*
X70000Y45000D02*
X70053Y45053D01*
X70107Y60855D02*
X70252Y61000D01*
X208000Y84000D02*
Y87000D01*
X202500Y82839D02*
X206839D01*
X208000Y84000D01*
X139847Y34154D02*
X140000Y34000D01*
X141000Y72319D02*
X141681Y73000D01*
X133000Y69153D02*
X133153Y69000D01*
X140835Y79847D02*
X141000Y79681D01*
X124000Y79847D02*
X140835D01*
X141000Y79681D02*
X141598Y80279D01*
X123923Y79923D02*
X124000Y79847D01*
X81800Y52400D02*
X81846Y52354D01*
X81748Y61000D02*
X81800Y60948D01*
X166847Y40681D02*
X168165Y42000D01*
X176339D01*
X173000Y52000D02*
X173082D01*
X174803Y50279D01*
X179500D01*
X225161Y45161D02*
X233161D01*
X219000Y39000D02*
X225161Y45161D01*
X177300D02*
X179500D01*
X177100Y44961D02*
X177300Y45161D01*
X177100Y42761D02*
Y44961D01*
X176339Y42000D02*
X177100Y42761D01*
X208000Y54000D02*
Y58000D01*
X202500Y52839D02*
X206839D01*
X208000Y54000D01*
X117000Y29000D02*
Y35681D01*
X116681Y36000D02*
X117000Y35681D01*
X233161Y45161D02*
X234000Y46000D01*
X219000Y71000D02*
X233000D01*
X234000Y70000D01*
X116000Y91000D02*
X125000D01*
X115000Y92000D02*
X116000Y91000D01*
X115000Y92000D02*
Y100000D01*
X49606Y87242D02*
Y110394D01*
X40000Y112000D02*
X48000D01*
X49606Y110394D01*
Y87242D02*
X51848Y85000D01*
X133000D01*
X135000Y87000D02*
Y100000D01*
X133000Y85000D02*
X135000Y87000D01*
X194000Y11000D02*
X200000Y17000D01*
X211000D01*
X105000Y11586D02*
X105586Y11000D01*
X194000D01*
X105000Y11586D02*
Y20000D01*
X114077Y79923D02*
X123923D01*
X114000Y80000D02*
X114077Y79923D01*
X65000Y20000D02*
Y34000D01*
X85000Y20000D02*
Y34000D01*
X96846Y45847D02*
X130000D01*
X85000Y34000D02*
X96846Y45847D01*
X105000Y20000D02*
Y34414D01*
X106586Y36000D01*
X109319D01*
X135083Y45847D02*
X137705Y43224D01*
Y42831D02*
X139173Y41362D01*
X130000Y45847D02*
X135083D01*
X137705Y42831D02*
Y43224D01*
X139173Y41362D02*
X140000D01*
Y49000D01*
X129847Y34000D02*
X130000Y34154D01*
X141598Y80279D02*
X179500D01*
X179339Y45000D02*
X179500Y45161D01*
X216638Y77720D02*
X217918Y79000D01*
X219000D01*
X202500Y77720D02*
X216638D01*
X202500Y75161D02*
X214839D01*
X219000Y71000D01*
X202500Y45161D02*
X225161D01*
X214414Y47721D02*
X215000Y48306D01*
X202500Y47721D02*
X214414D01*
X215000Y48306D02*
Y67000D01*
X231787Y53000D02*
X232000Y52787D01*
X215000Y67000D02*
X219000Y71000D01*
D15*
X179500Y45161D02*
D03*
Y47721D02*
D03*
Y50279D02*
D03*
Y52839D02*
D03*
X202500D02*
D03*
Y50279D02*
D03*
Y47721D02*
D03*
Y45161D02*
D03*
Y75161D02*
D03*
Y77720D02*
D03*
Y80279D02*
D03*
Y82839D02*
D03*
X179500D02*
D03*
Y80279D02*
D03*
Y77720D02*
D03*
Y75161D02*
D03*
D16*
X234000Y70000D02*
D03*
Y46000D02*
D03*
D17*
X122000Y113000D02*
D03*
X111016D02*
D03*
X213508Y30000D02*
D03*
X224492D02*
D03*
D18*
X141000Y73319D02*
D03*
Y80681D02*
D03*
X140000Y41362D02*
D03*
Y34000D02*
D03*
D19*
X116681Y36000D02*
D03*
X109319D02*
D03*
D20*
X94252Y61000D02*
D03*
X105748D02*
D03*
X81748D02*
D03*
X70252D02*
D03*
D21*
X155154Y42000D02*
D03*
X166847D02*
D03*
X70107Y52400D02*
D03*
X81800D02*
D03*
X155154Y73000D02*
D03*
X166847D02*
D03*
D22*
X133000Y69153D02*
D03*
Y80847D02*
D03*
X132000Y45847D02*
D03*
Y34154D02*
D03*
D36*
X70053Y45053D02*
Y52346D01*
X70107Y52400D02*
Y60855D01*
X132000Y34154D02*
X139847D01*
X140000Y34000D02*
X147000D01*
X149000Y36000D01*
Y42000D01*
X141681Y73000D02*
X149000D01*
X141000Y70000D02*
Y72319D01*
X133153Y69000D02*
X140000D01*
X141000Y70000D01*
X149000Y73000D02*
X155154D01*
X81846Y38846D02*
Y52354D01*
X81800Y52400D02*
Y60948D01*
X105748Y61000D02*
X166847D01*
Y73000D01*
Y42000D02*
Y61000D01*
X149000Y42000D02*
X155154D01*
X166847Y40681D02*
X177528Y30000D01*
X213508D01*
X166847Y40681D02*
Y42000D01*
X224492Y30000D02*
X232000D01*
X234000Y32000D02*
Y46000D01*
X232000Y30000D02*
X234000Y32000D01*
X85000Y100000D02*
Y109000D01*
X89000Y113000D02*
X111016D01*
X85000Y109000D02*
X89000Y113000D01*
X75000Y20000D02*
Y32000D01*
X81846Y38846D01*
X81748Y61000D02*
X94252D01*
X122000Y113000D02*
X210000D01*
D37*
X166847Y73000D02*
X172394D01*
X174555Y75161D01*
X179500D01*
D38*
X31000Y24000D02*
X35000Y20000D01*
X31000Y24000D02*
Y100000D01*
X33000Y102000D01*
X40000D01*
D39*
X65000Y100000D02*
D03*
X75000D02*
D03*
X125000D02*
D03*
X115000D02*
D03*
X105000D02*
D03*
X95000D02*
D03*
X85000D02*
D03*
X165000D02*
D03*
X155000D02*
D03*
X145000D02*
D03*
X135000D02*
D03*
X25000Y20000D02*
D03*
X35000D02*
D03*
X45000D02*
D03*
X55000D02*
D03*
X65000D02*
D03*
X75000D02*
D03*
X85000D02*
D03*
X95000D02*
D03*
X105000D02*
D03*
X115000D02*
D03*
X125000D02*
D03*
X135000D02*
D03*
X145000D02*
D03*
X155000D02*
D03*
X165000D02*
D03*
D40*
X175000Y100000D02*
D03*
Y20000D02*
D03*
D41*
X210000Y113000D02*
D03*
X40000Y92000D02*
D03*
Y102000D02*
D03*
X211000Y17000D02*
D03*
D42*
X210000Y103000D02*
D03*
X40000Y112000D02*
D03*
X211000Y7000D02*
D03*
D43*
X70000Y45000D02*
D03*
X208000Y87000D02*
D03*
X149000Y73000D02*
D03*
Y42000D02*
D03*
X173000Y52000D02*
D03*
X208000Y58000D02*
D03*
X117000Y29000D02*
D03*
X125000Y91000D02*
D03*
X114000Y80000D02*
D03*
X65000Y34000D02*
D03*
X140000Y49000D02*
D03*
X219000Y39000D02*
D03*
Y79000D02*
D03*
M02*
