G04*
G04 #@! TF.GenerationSoftware,Altium Limited,Altium Designer,21.6.4 (81)*
G04*
G04 Layer_Color=255*
%FSLAX25Y25*%
%MOIN*%
G70*
G04*
G04 #@! TF.SameCoordinates,CDACAC81-B456-474A-B871-3F5FD81D5149*
G04*
G04*
G04 #@! TF.FilePolarity,Positive*
G04*
G01*
G75*
%ADD39C,0.06142*%
%ADD40R,0.06142X0.06142*%
%ADD41C,0.05394*%
%ADD42R,0.05394X0.05394*%
D39*
X65000Y100000D02*
D03*
X75000D02*
D03*
X125000D02*
D03*
X115000D02*
D03*
X105000D02*
D03*
X95000D02*
D03*
X85000D02*
D03*
X165000D02*
D03*
X155000D02*
D03*
X145000D02*
D03*
X135000D02*
D03*
X25000Y20000D02*
D03*
X35000D02*
D03*
X45000D02*
D03*
X55000D02*
D03*
X65000D02*
D03*
X75000D02*
D03*
X85000D02*
D03*
X95000D02*
D03*
X105000D02*
D03*
X115000D02*
D03*
X125000D02*
D03*
X135000D02*
D03*
X145000D02*
D03*
X155000D02*
D03*
X165000D02*
D03*
D40*
X175000Y100000D02*
D03*
Y20000D02*
D03*
D41*
X210000Y113000D02*
D03*
X40000Y92000D02*
D03*
Y102000D02*
D03*
X211000Y17000D02*
D03*
D42*
X210000Y103000D02*
D03*
X40000Y112000D02*
D03*
X211000Y7000D02*
D03*
M02*
