G04*
G04 #@! TF.GenerationSoftware,Altium Limited,Altium Designer,21.6.4 (81)*
G04*
G04 Layer_Color=65535*
%FSLAX25Y25*%
%MOIN*%
G70*
G04*
G04 #@! TF.SameCoordinates,CDACAC81-B456-474A-B871-3F5FD81D5149*
G04*
G04*
G04 #@! TF.FilePolarity,Positive*
G04*
G01*
G75*
%ADD10C,0.00787*%
%ADD11C,0.00600*%
%ADD12C,0.00500*%
%ADD13C,0.01000*%
%ADD14C,0.00300*%
D10*
X183937Y99606D02*
G03*
X183937Y99606I-394J0D01*
G01*
X210394Y94437D02*
G03*
X210394Y94437I-394J0D01*
G01*
X40394Y120563D02*
G03*
X40394Y120563I-394J0D01*
G01*
X211394Y-1563D02*
G03*
X211394Y-1563I-394J0D01*
G01*
X183858Y20000D02*
G03*
X183858Y20000I-394J0D01*
G01*
X58996Y95256D02*
Y104744D01*
X181004D01*
X58996Y95256D02*
X181004D01*
Y104744D01*
X215984Y96996D02*
Y119004D01*
X249488Y96996D02*
Y119004D01*
X215984Y96996D02*
X249488D01*
X215984Y119004D02*
X249488D01*
X34016Y85996D02*
Y118004D01*
X512Y85996D02*
Y118004D01*
X34016D01*
X512Y85996D02*
X34016D01*
X216984Y996D02*
Y23004D01*
X250488Y996D02*
Y23004D01*
X216984Y996D02*
X250488D01*
X216984Y23004D02*
X250488D01*
X181004Y15256D02*
Y24744D01*
X18996D02*
X181004D01*
X18996Y15256D02*
Y24744D01*
Y15256D02*
X181004D01*
D11*
X192200Y42900D02*
G03*
X189800Y42900I-1200J0D01*
G01*
X192200Y72900D02*
G03*
X189800Y72900I-1200J0D01*
G01*
X182150Y42900D02*
X199850D01*
X182150Y55100D02*
X199850D01*
X182150Y85100D02*
X199850D01*
X182150Y72900D02*
X199850D01*
D12*
X240693Y55244D02*
Y60756D01*
X227307Y55244D02*
Y60756D01*
X114894Y109496D02*
X118122D01*
X114894Y116504D02*
X118122D01*
X217386Y33504D02*
X220614D01*
X217386Y26496D02*
X220614D01*
X138244Y76528D02*
Y77472D01*
X143756Y76528D02*
Y77472D01*
X142756Y37209D02*
Y38153D01*
X137244Y37209D02*
Y38153D01*
X112528Y33244D02*
X113472D01*
X112528Y38756D02*
X113472D01*
X97559Y64346D02*
X102441D01*
X97559Y57653D02*
X102441D01*
X73559D02*
X78441D01*
X73559Y64346D02*
X78441D01*
D13*
X8000Y9664D02*
Y4666D01*
X10499D01*
X11332Y5499D01*
Y8831D01*
X10499Y9664D01*
X8000D01*
X15498Y4666D02*
X13831D01*
X12998Y5499D01*
Y7165D01*
X13831Y7998D01*
X15498D01*
X16331Y7165D01*
Y6332D01*
X12998D01*
X17997Y4666D02*
X20496D01*
X21329Y5499D01*
X20496Y6332D01*
X18830D01*
X17997Y7165D01*
X18830Y7998D01*
X21329D01*
X22995Y4666D02*
X24661D01*
X23828D01*
Y7998D01*
X22995D01*
X28827Y3000D02*
X29660D01*
X30493Y3833D01*
Y7998D01*
X27994D01*
X27161Y7165D01*
Y5499D01*
X27994Y4666D01*
X30493D01*
X32159D02*
Y7998D01*
X34658D01*
X35491Y7165D01*
Y4666D01*
X39656D02*
X37990D01*
X37157Y5499D01*
Y7165D01*
X37990Y7998D01*
X39656D01*
X40490Y7165D01*
Y6332D01*
X37157D01*
X45488Y9664D02*
Y4666D01*
X42989D01*
X42156Y5499D01*
Y7165D01*
X42989Y7998D01*
X45488D01*
X52152Y9664D02*
Y4666D01*
X54651D01*
X55485Y5499D01*
Y6332D01*
X54651Y7165D01*
X52152D01*
X54651D01*
X55485Y7998D01*
Y8831D01*
X54651Y9664D01*
X52152D01*
X57151Y7998D02*
Y5499D01*
X57984Y4666D01*
X60483D01*
Y3833D01*
X59650Y3000D01*
X58817D01*
X60483Y4666D02*
Y7998D01*
X67147Y4666D02*
Y9664D01*
X68814Y7998D01*
X70480Y9664D01*
Y4666D01*
X72979Y7998D02*
X74645D01*
X75478Y7165D01*
Y4666D01*
X72979D01*
X72146Y5499D01*
X72979Y6332D01*
X75478D01*
X77977Y8831D02*
Y7998D01*
X77144D01*
X78810D01*
X77977D01*
Y5499D01*
X78810Y4666D01*
X82143Y8831D02*
Y7998D01*
X81310D01*
X82976D01*
X82143D01*
Y5499D01*
X82976Y4666D01*
X85475Y9664D02*
Y4666D01*
Y7165D01*
X86308Y7998D01*
X87974D01*
X88807Y7165D01*
Y4666D01*
X92972D02*
X91306D01*
X90473Y5499D01*
Y7165D01*
X91306Y7998D01*
X92972D01*
X93805Y7165D01*
Y6332D01*
X90473D01*
X95472Y7998D02*
Y5499D01*
X96305Y4666D01*
X97138Y5499D01*
X97971Y4666D01*
X98804Y5499D01*
Y7998D01*
X105468Y4666D02*
Y9664D01*
X107968D01*
X108801Y8831D01*
Y7165D01*
X107968Y6332D01*
X105468D01*
X111300Y7998D02*
X112966D01*
X113799Y7165D01*
Y4666D01*
X111300D01*
X110467Y5499D01*
X111300Y6332D01*
X113799D01*
X115465Y4666D02*
Y7998D01*
X117964D01*
X118797Y7165D01*
Y4666D01*
X120464D02*
X122130D01*
X121297D01*
Y7998D01*
X120464D01*
X124629D02*
X127961D01*
X124629Y4666D01*
X127961D01*
X129627Y7998D02*
X132959D01*
X129627Y4666D01*
X132959D01*
X135459Y7998D02*
X137125D01*
X137958Y7165D01*
Y4666D01*
X135459D01*
X134626Y5499D01*
X135459Y6332D01*
X137958D01*
X144622Y4666D02*
X146289D01*
X145456D01*
Y9664D01*
X144622Y8831D01*
X148788Y4666D02*
X150454D01*
X149621D01*
Y9664D01*
X148788Y8831D01*
X152953Y4666D02*
X156285Y7998D01*
X161284Y4666D02*
X157951D01*
X161284Y7998D01*
Y8831D01*
X160451Y9664D01*
X158784D01*
X157951Y8831D01*
X162950Y4666D02*
X164616D01*
X163783D01*
Y9664D01*
X162950Y8831D01*
X56000Y112999D02*
X54001D01*
X55001D01*
Y108001D01*
X54001Y107001D01*
X53001D01*
X52002Y108001D01*
X60999Y107001D02*
Y112999D01*
X58000Y110000D01*
X61998D01*
X199000Y107999D02*
X197001D01*
X198001D01*
Y103001D01*
X197001Y102001D01*
X196001D01*
X195002Y103001D01*
X204998Y102001D02*
X201000D01*
X204998Y106000D01*
Y106999D01*
X203999Y107999D01*
X201999D01*
X201000Y106999D01*
X186002Y62999D02*
Y58001D01*
X187001Y57001D01*
X189001D01*
X190000Y58001D01*
Y62999D01*
X195998Y57001D02*
X192000D01*
X195998Y61000D01*
Y61999D01*
X194999Y62999D01*
X192999D01*
X192000Y61999D01*
X199000Y25999D02*
X195002D01*
Y23000D01*
X197001D01*
X195002D01*
Y20001D01*
X204998D02*
X201000D01*
X204998Y24000D01*
Y24999D01*
X203999Y25999D01*
X201999D01*
X201000Y24999D01*
X224000Y82200D02*
Y88198D01*
X226999D01*
X227999Y87198D01*
Y85199D01*
X226999Y84199D01*
X224000D01*
X225999D02*
X227999Y82200D01*
X233997D02*
X229998D01*
X233997Y86199D01*
Y87198D01*
X232997Y88198D01*
X230998D01*
X229998Y87198D01*
X187001Y92999D02*
Y88001D01*
X188001Y87001D01*
X190000D01*
X191000Y88001D01*
Y92999D01*
X192999Y87001D02*
X194999D01*
X193999D01*
Y92999D01*
X192999Y91999D01*
X107300Y42900D02*
Y48898D01*
X110299D01*
X111299Y47898D01*
Y45899D01*
X110299Y44899D01*
X107300D01*
X109299D02*
X111299Y42900D01*
X117297Y48898D02*
X115297Y47898D01*
X113298Y45899D01*
Y43900D01*
X114298Y42900D01*
X116297D01*
X117297Y43900D01*
Y44899D01*
X116297Y45899D01*
X113298D01*
X55002Y59001D02*
Y64999D01*
X58001D01*
X59000Y63999D01*
Y62000D01*
X58001Y61000D01*
X55002D01*
X57001D02*
X59000Y59001D01*
X64998Y64999D02*
X61000D01*
Y62000D01*
X62999Y63000D01*
X63999D01*
X64998Y62000D01*
Y60001D01*
X63999Y59001D01*
X61999D01*
X61000Y60001D01*
X92100Y68500D02*
Y74498D01*
X95099D01*
X96099Y73498D01*
Y71499D01*
X95099Y70499D01*
X92100D01*
X94099D02*
X96099Y68500D01*
X101097D02*
Y74498D01*
X98098Y71499D01*
X102097D01*
X143002Y52001D02*
Y57999D01*
X146001D01*
X147000Y56999D01*
Y55000D01*
X146001Y54000D01*
X143002D01*
X145001D02*
X147000Y52001D01*
X149000Y56999D02*
X149999Y57999D01*
X151999D01*
X152998Y56999D01*
Y56000D01*
X151999Y55000D01*
X150999D01*
X151999D01*
X152998Y54000D01*
Y53001D01*
X151999Y52001D01*
X149999D01*
X149000Y53001D01*
X142001Y85001D02*
Y90999D01*
X145000D01*
X146000Y89999D01*
Y88000D01*
X145000Y87000D01*
X142001D01*
X144001D02*
X146000Y85001D01*
X147999D02*
X149999D01*
X148999D01*
Y90999D01*
X147999Y89999D01*
X242000Y30999D02*
X240001D01*
X241001D01*
Y26001D01*
X240001Y25001D01*
X239001D01*
X238002Y26001D01*
X247998Y30999D02*
X244000D01*
Y28000D01*
X245999Y29000D01*
X246999D01*
X247998Y28000D01*
Y26001D01*
X246999Y25001D01*
X244999D01*
X244000Y26001D01*
X22899Y34798D02*
X20899D01*
X21899D01*
Y29800D01*
X20899Y28800D01*
X19900D01*
X18900Y29800D01*
X24898Y33798D02*
X25898Y34798D01*
X27897D01*
X28897Y33798D01*
Y32799D01*
X27897Y31799D01*
X26897D01*
X27897D01*
X28897Y30799D01*
Y29800D01*
X27897Y28800D01*
X25898D01*
X24898Y29800D01*
X10000Y83999D02*
X8001D01*
X9000D01*
Y79001D01*
X8001Y78001D01*
X7001D01*
X6001Y79001D01*
X11999Y78001D02*
X13999D01*
X12999D01*
Y83999D01*
X11999Y82999D01*
X78000Y117999D02*
X74001D01*
Y115000D01*
X76001D01*
X74001D01*
Y112001D01*
X79999D02*
X81999D01*
X80999D01*
Y117999D01*
X79999Y116999D01*
X59000Y51999D02*
X58001Y52999D01*
X56001D01*
X55002Y51999D01*
Y48001D01*
X56001Y47001D01*
X58001D01*
X59000Y48001D01*
X64998Y52999D02*
X61000D01*
Y50000D01*
X62999Y51000D01*
X63999D01*
X64998Y50000D01*
Y48001D01*
X63999Y47001D01*
X61999D01*
X61000Y48001D01*
X132599Y57198D02*
X131599Y58198D01*
X129600D01*
X128600Y57198D01*
Y53200D01*
X129600Y52200D01*
X131599D01*
X132599Y53200D01*
X137597Y52200D02*
Y58198D01*
X134598Y55199D01*
X138597D01*
X157000Y52999D02*
X156001Y53999D01*
X154001D01*
X153002Y52999D01*
Y49001D01*
X154001Y48001D01*
X156001D01*
X157000Y49001D01*
X159000Y52999D02*
X159999Y53999D01*
X161999D01*
X162998Y52999D01*
Y52000D01*
X161999Y51000D01*
X160999D01*
X161999D01*
X162998Y50000D01*
Y49001D01*
X161999Y48001D01*
X159999D01*
X159000Y49001D01*
X163000Y87999D02*
X162001Y88999D01*
X160001D01*
X159002Y87999D01*
Y84001D01*
X160001Y83001D01*
X162001D01*
X163000Y84001D01*
X168998Y83001D02*
X165000D01*
X168998Y87000D01*
Y87999D01*
X167999Y88999D01*
X165999D01*
X165000Y87999D01*
X124000Y75999D02*
X123000Y76999D01*
X121001D01*
X120001Y75999D01*
Y72001D01*
X121001Y71001D01*
X123000D01*
X124000Y72001D01*
X125999Y71001D02*
X127999D01*
X126999D01*
Y76999D01*
X125999Y75999D01*
D14*
X204750Y40096D02*
X201418Y43428D01*
X204750D02*
X201418Y40096D01*
X204750Y41762D02*
X201418D01*
X203084Y43428D02*
Y40096D01*
X204750Y70096D02*
X201418Y73428D01*
X204750D02*
X201418Y70096D01*
X204750Y71762D02*
X201418D01*
X203084Y73428D02*
Y70096D01*
M02*
