G04*
G04 #@! TF.GenerationSoftware,Altium Limited,Altium Designer,21.6.4 (81)*
G04*
G04 Layer_Color=8388736*
%FSLAX25Y25*%
%MOIN*%
G70*
G04*
G04 #@! TF.SameCoordinates,CDACAC81-B456-474A-B871-3F5FD81D5149*
G04*
G04*
G04 #@! TF.FilePolarity,Negative*
G04*
G01*
G75*
%ADD23R,0.06600X0.02200*%
%ADD24R,0.14265X0.17194*%
%ADD25R,0.05997X0.07887*%
%ADD26R,0.06391X0.04737*%
%ADD27R,0.04737X0.06391*%
%ADD28R,0.04934X0.07572*%
G04:AMPARAMS|DCode=29|XSize=79.65mil|YSize=53.28mil|CornerRadius=16.22mil|HoleSize=0mil|Usage=FLASHONLY|Rotation=270.000|XOffset=0mil|YOffset=0mil|HoleType=Round|Shape=RoundedRectangle|*
%AMROUNDEDRECTD29*
21,1,0.07965,0.02083,0,0,270.0*
21,1,0.04720,0.05328,0,0,270.0*
1,1,0.03245,-0.01041,-0.02360*
1,1,0.03245,-0.01041,0.02360*
1,1,0.03245,0.01041,0.02360*
1,1,0.03245,0.01041,-0.02360*
%
%ADD29ROUNDEDRECTD29*%
G04:AMPARAMS|DCode=30|XSize=79.65mil|YSize=53.28mil|CornerRadius=16.22mil|HoleSize=0mil|Usage=FLASHONLY|Rotation=0.000|XOffset=0mil|YOffset=0mil|HoleType=Round|Shape=RoundedRectangle|*
%AMROUNDEDRECTD30*
21,1,0.07965,0.02083,0,0,0.0*
21,1,0.04720,0.05328,0,0,0.0*
1,1,0.03245,0.02360,-0.01041*
1,1,0.03245,-0.02360,-0.01041*
1,1,0.03245,-0.02360,0.01041*
1,1,0.03245,0.02360,0.01041*
%
%ADD30ROUNDEDRECTD30*%
%ADD31C,0.06942*%
%ADD32R,0.06942X0.06942*%
%ADD33C,0.06194*%
%ADD34R,0.06194X0.06194*%
%ADD35C,0.05800*%
D23*
X179500Y45161D02*
D03*
Y47721D02*
D03*
Y50279D02*
D03*
Y52839D02*
D03*
X202500D02*
D03*
Y50279D02*
D03*
Y47721D02*
D03*
Y45161D02*
D03*
Y75161D02*
D03*
Y77720D02*
D03*
Y80279D02*
D03*
Y82839D02*
D03*
X179500D02*
D03*
Y80279D02*
D03*
Y77720D02*
D03*
Y75161D02*
D03*
D24*
X234000Y70000D02*
D03*
Y46000D02*
D03*
D25*
X122000Y113000D02*
D03*
X111016D02*
D03*
X213508Y30000D02*
D03*
X224492D02*
D03*
D26*
X141000Y73319D02*
D03*
Y80681D02*
D03*
X140000Y41362D02*
D03*
Y34000D02*
D03*
D27*
X116681Y36000D02*
D03*
X109319D02*
D03*
D28*
X94252Y61000D02*
D03*
X105748D02*
D03*
X81748D02*
D03*
X70252D02*
D03*
D29*
X155154Y42000D02*
D03*
X166847D02*
D03*
X70107Y52400D02*
D03*
X81800D02*
D03*
X155154Y73000D02*
D03*
X166847D02*
D03*
D30*
X133000Y69153D02*
D03*
Y80847D02*
D03*
X132000Y45847D02*
D03*
Y34154D02*
D03*
D31*
X65000Y100000D02*
D03*
X75000D02*
D03*
X125000D02*
D03*
X115000D02*
D03*
X105000D02*
D03*
X95000D02*
D03*
X85000D02*
D03*
X165000D02*
D03*
X155000D02*
D03*
X145000D02*
D03*
X135000D02*
D03*
X25000Y20000D02*
D03*
X35000D02*
D03*
X45000D02*
D03*
X55000D02*
D03*
X65000D02*
D03*
X75000D02*
D03*
X85000D02*
D03*
X95000D02*
D03*
X105000D02*
D03*
X115000D02*
D03*
X125000D02*
D03*
X135000D02*
D03*
X145000D02*
D03*
X155000D02*
D03*
X165000D02*
D03*
D32*
X175000Y100000D02*
D03*
Y20000D02*
D03*
D33*
X210000Y113000D02*
D03*
X40000Y92000D02*
D03*
Y102000D02*
D03*
X211000Y17000D02*
D03*
D34*
X210000Y103000D02*
D03*
X40000Y112000D02*
D03*
X211000Y7000D02*
D03*
D35*
X70000Y45000D02*
D03*
X208000Y87000D02*
D03*
X149000Y73000D02*
D03*
Y42000D02*
D03*
X173000Y52000D02*
D03*
X208000Y58000D02*
D03*
X117000Y29000D02*
D03*
X125000Y91000D02*
D03*
X114000Y80000D02*
D03*
X65000Y34000D02*
D03*
X140000Y49000D02*
D03*
X219000Y39000D02*
D03*
Y79000D02*
D03*
M02*
